HIERARCHY
ROOT Pelvis
{
	OFFSET 0.000000 0.000000 0.000000
	CHANNELS 6 Xposition Yposition Zposition Xrotation Yrotation Zrotation
	JOINT LeftUpLeg_virtual
	{
		OFFSET 0.000000 0.000000 0.000000
		CHANNELS 3 Xrotation Yrotation Zrotation
		JOINT LeftUpLeg
		{
			OFFSET 18.735201 -5.666702 -4.541200
			CHANNELS 3 Xrotation Yrotation Zrotation
			JOINT LeftLeg
			{
				OFFSET -0.021200 -31.938179 0.493100
				CHANNELS 3 Xrotation Yrotation Zrotation
				JOINT LeftFoot
				{
					OFFSET 0.021200 -31.938179 -4.336299
					CHANNELS 3 Xrotation Yrotation Zrotation
					JOINT LeftToeBase
					{
						OFFSET 0.943001 -26.722000 15.023500
						CHANNELS 3 Xrotation Yrotation Zrotation
						End Site
						{
							OFFSET 0 0 0
						}
					}
				}
			}
		}
	}
	JOINT RightUpLeg_virtual
	{
		OFFSET 0.000000 0.000000 0.000000
		CHANNELS 3 Xrotation Yrotation Zrotation
		JOINT RightUpLeg
		{
			OFFSET -18.735201 -5.666702 -4.541200
			CHANNELS 3 Xrotation Yrotation Zrotation
			JOINT RightLeg
			{
				OFFSET 0.018946 -31.938133 0.493100
				CHANNELS 3 Xrotation Yrotation Zrotation
				JOINT RightFoot
				{
					OFFSET -0.018946 -31.938126 -4.336299
					CHANNELS 3 Xrotation Yrotation Zrotation
					JOINT RightToeBase
					{
						OFFSET -0.943001 -26.722004 15.023500
						CHANNELS 3 Xrotation Yrotation Zrotation
						End Site
						{
							OFFSET 0 0 0
						}
					}
				}
			}
		}
	}
	JOINT Hips_virtual
	{
		OFFSET 0.000000 0.000000 0.000000
		CHANNELS 3 Xrotation Yrotation Zrotation
		JOINT Hips
		{
			OFFSET -0.000000 -0.000000 -0.000000
			CHANNELS 3 Xrotation Yrotation Zrotation
			JOINT Spine
			{
				OFFSET 0.000000 10.199997 -0.299500
				CHANNELS 3 Xrotation Yrotation Zrotation
				JOINT Spine1
				{
					OFFSET 0.000000 11.900002 -1.516600
					CHANNELS 3 Xrotation Yrotation Zrotation
					JOINT Spine2
					{
						OFFSET 0.000000 13.600006 -2.842500
						CHANNELS 3 Xrotation Yrotation Zrotation
						JOINT Neck_virtual
						{
							OFFSET 0.000000 0.000000 0.000000
							CHANNELS 3 Xrotation Yrotation Zrotation
							JOINT Neck
							{
								OFFSET 0.000000 9.624100 -2.890100
								CHANNELS 3 Xrotation Yrotation Zrotation
								JOINT Head
								{
									OFFSET 0.000000 14.068802 -1.351900
									CHANNELS 3 Xrotation Yrotation Zrotation
									End Site
									{
										OFFSET 0 0 0
									}
								}
							}
						}
						JOINT LeftShoulder_virtual
						{
							OFFSET 0.000000 0.000000 0.000000
							CHANNELS 3 Xrotation Yrotation Zrotation
							JOINT LeftShoulder
							{
								OFFSET 15.263000 10.923401 -0.547700
								CHANNELS 3 Xrotation Yrotation Zrotation
								JOINT LeftArm
								{
									OFFSET 25.438599 -2.830597 -13.032500
									CHANNELS 3 Xrotation Yrotation Zrotation
									JOINT LeftForeArm
									{
										OFFSET 29.960503 0.000000 0.000000
										CHANNELS 3 Xrotation Yrotation Zrotation
										JOINT LeftHand
										{
											OFFSET 27.849251 0.000000 0.000000
											CHANNELS 3 Xrotation Yrotation Zrotation
											End Site
											{
												OFFSET 0 0 0
											}
										}
									}
								}
							}
						}
						JOINT RightShoulder_virtual
						{
							OFFSET 0.000000 0.000000 0.000000
							CHANNELS 3 Xrotation Yrotation Zrotation
							JOINT RightShoulder
							{
								OFFSET -15.263000 10.923401 -0.547700
								CHANNELS 3 Xrotation Yrotation Zrotation
								JOINT RightArm
								{
									OFFSET -25.438599 -2.830597 -13.032500
									CHANNELS 3 Xrotation Yrotation Zrotation
									JOINT RightForeArm
									{
										OFFSET -29.960503 0.000000 0.000000
										CHANNELS 3 Xrotation Yrotation Zrotation
										JOINT RightHand
										{
											OFFSET -27.849251 0.000000 0.000000
											CHANNELS 3 Xrotation Yrotation Zrotation
											End Site
											{
												OFFSET 0 0 0
											}
										}
									}
								}
							}
						}
					}
				}
			}
		}
	}
}
MOTION
Frames: 8
Frame Time: 0.03333333
1.421717 80.098236 1.047894 0.000000 0.000000 0.000000 17.629022 2.453887 -5.227559 -18.012268 15.192723 11.036543 46.388234 1.579960 5.820321 -6.461829 -1.678357 4.244769 0.000000 0.000000 0.000000 -8.479483 16.795925 5.781042 -41.875046 0.350913 -9.653340 52.949477 -4.145622 -5.028185 -1.258405 -4.099737 0.024445 0.000000 0.000000 0.000000 1.369752 -0.627968 0.177875 9.420731 13.717592 -3.705578 6.981522 -3.812190 2.782809 2.402236 -1.868022 1.585570 0.000000 0.000000 0.000000 1.630202 -1.613367 0.824173 -1.056452 -0.325694 0.325871 0.000000 0.000000 0.000000 3.465633 -0.365753 1.163983 1.569615 -3.206227 -2.399550 -34.209709 -21.113892 -63.781918 -23.238356 -77.636411 -25.315623 0.000000 0.000000 0.000000 2.614852 -3.241443 1.847000 1.696379 -4.686925 11.561937 -21.579122 21.702619 55.093972 -84.659607 87.114254 85.681206 0.000000 0.000000 0.000000 
1.379828 80.635849 1.048874 0.000000 0.000000 0.000000 17.450228 2.257617 -5.196352 -18.150516 15.097687 11.009258 47.376671 1.656099 5.818880 -5.646707 -1.631115 4.306294 0.000000 0.000000 0.000000 -8.513550 16.726401 5.738337 -41.878256 0.355424 -9.659394 52.885612 -4.201833 -5.014400 -1.195997 -4.167461 -0.042473 0.000000 0.000000 0.000000 1.336212 -0.571012 0.180314 9.311319 13.818760 -3.680339 7.063155 -3.798685 2.744169 2.431062 -1.844346 1.597204 0.000000 0.000000 0.000000 1.686601 -1.627289 0.751448 -1.023598 -0.324138 0.291880 0.000000 0.000000 0.000000 3.478710 -0.405841 1.139361 1.564348 -3.287607 -2.451932 -34.688417 -21.346733 -63.781536 -24.048819 -77.997017 -26.098079 0.000000 0.000000 0.000000 2.582536 -3.252024 1.812410 1.685475 -4.758832 11.370632 -22.052639 21.845196 54.888138 -91.911568 87.040837 92.789670 0.000000 0.000000 0.000000 
1.313509 81.631226 1.050700 0.000000 0.000000 0.000000 17.090614 1.905292 -5.139564 -18.483212 14.922490 10.980593 49.348841 1.805293 5.795524 -4.034334 -1.528103 4.397221 0.000000 0.000000 0.000000 -8.572821 16.585181 5.660158 -41.879523 0.359207 -9.668574 52.771128 -4.295514 -4.980577 -1.082564 -4.287022 -0.142531 0.000000 0.000000 0.000000 1.263421 -0.476854 0.185240 9.086283 14.009790 -3.632540 7.211477 -3.763720 2.674982 2.489201 -1.800122 1.617257 0.000000 0.000000 0.000000 1.789818 -1.647986 0.617702 -0.960370 -0.320818 0.229239 0.000000 0.000000 0.000000 3.503572 -0.482398 1.095861 1.553080 -3.456280 -2.534149 -35.593284 -21.777643 -63.770491 -25.738962 -78.670133 -27.730928 0.000000 0.000000 0.000000 2.524917 -3.266776 1.747314 1.660242 -4.873881 10.998987 -22.983544 22.106244 54.512573 -103.740752 86.791910 104.350817 0.000000 0.000000 0.000000 
1.248886 82.947922 1.053153 0.000000 0.000000 0.000000 16.544226 1.461637 -5.065673 -19.101773 14.690415 10.991799 52.270123 2.021278 5.717458 -1.675147 -1.356374 4.465725 0.000000 0.000000 0.000000 -8.642249 16.376499 5.564023 -41.868090 0.353652 -9.670524 52.632324 -4.395440 -4.917999 -0.933303 -4.430069 -0.222038 0.000000 0.000000 0.000000 1.145419 -0.374501 0.192529 8.742104 14.275793 -3.573879 7.404065 -3.694991 2.589009 2.576110 -1.740578 1.641193 0.000000 0.000000 0.000000 1.925210 -1.663978 0.443226 -0.870644 -0.315405 0.147227 0.000000 0.000000 0.000000 3.538428 -0.588035 1.044503 1.536332 -3.717753 -2.605999 -36.843604 -22.344083 -63.731553 -28.461866 -79.570625 -30.362284 0.000000 0.000000 0.000000 2.454601 -3.275421 1.658591 1.617296 -4.985537 10.467568 -24.340378 22.445960 54.027657 -115.755587 86.299741 116.003059 0.000000 0.000000 0.000000 
1.208989 84.428726 1.057108 0.000000 0.000000 0.000000 15.799011 0.994738 -4.982907 -20.102148 14.423888 11.083900 56.044615 2.294178 5.551633 1.330966 -1.104901 4.458826 0.000000 0.000000 0.000000 -8.704183 16.121693 5.479262 -41.827300 0.330119 -9.643626 52.505628 -4.466476 -4.821172 -0.758236 -4.560841 -0.227842 0.000000 0.000000 0.000000 0.983359 -0.287373 0.201722 8.288698 14.605986 -3.529934 7.622010 -3.581154 2.501710 2.688754 -1.671250 1.665647 0.000000 0.000000 0.000000 2.079644 -1.663517 0.251979 -0.758149 -0.307482 0.056795 0.000000 0.000000 0.000000 3.582809 -0.711604 1.000425 1.518570 -4.068029 -2.617635 -38.362891 -22.968219 -63.645841 -32.472109 -80.591444 -34.236074 0.000000 0.000000 0.000000 2.386949 -3.267735 1.553884 1.557439 -5.045786 9.803236 -26.076312 22.821267 53.499000 -125.083071 85.615096 124.903956 0.000000 0.000000 0.000000 
1.205605 85.929161 1.067430 0.000000 0.000000 0.000000 14.836966 0.559945 -4.898055 -21.557083 14.136991 11.283714 60.500702 2.610127 5.275848 4.830752 -0.770357 4.339359 0.000000 0.000000 0.000000 -8.741129 15.864077 5.442594 -41.735359 0.283723 -9.557204 52.429447 -4.476175 -4.692932 -0.559169 -4.640782 -0.125101 0.000000 0.000000 0.000000 0.789589 -0.222329 0.212051 7.753346 14.993257 -3.535568 7.858522 -3.416242 2.426094 2.821920 -1.596207 1.689944 0.000000 0.000000 0.000000 2.246601 -1.637952 0.066698 -0.625329 -0.296492 -0.031710 0.000000 0.000000 0.000000 3.639815 -0.838876 0.980825 1.509595 -4.487188 -2.518072 -40.099938 -23.571500 -63.497619 -38.115287 -81.616341 -39.682484 0.000000 0.000000 0.000000 2.336072 -3.237205 1.439669 1.487398 -5.019574 9.034231 -28.128273 23.196024 52.979609 -131.410845 84.844022 130.764136 0.000000 0.000000 0.000000 
1.237650 87.338234 1.096694 0.000000 0.000000 0.000000 13.638535 0.192315 -4.816883 -23.497719 13.832816 11.596098 65.405468 2.952224 4.886074 8.634099 -0.359838 4.096774 0.000000 0.000000 0.000000 -8.737479 15.663449 5.487813 -41.568145 0.216198 -9.380531 52.431261 -4.397866 -4.546959 -0.335305 -4.631897 0.093686 0.000000 0.000000 0.000000 0.585314 -0.168805 0.222701 7.174994 15.427833 -3.621188 8.120891 -3.201501 2.369758 2.970484 -1.517225 1.715799 0.000000 0.000000 0.000000 2.427311 -1.583291 -0.094558 -0.473185 -0.281723 -0.110136 0.000000 0.000000 0.000000 3.717070 -0.954225 1.002155 1.523178 -4.940029 -2.262453 -42.028449 -24.088657 -63.276375 -45.725285 -82.528240 -47.019832 0.000000 0.000000 0.000000 2.310844 -3.183159 1.320108 1.417799 -4.892720 8.184985 -30.418500 23.544951 52.499812 -135.482840 84.074404 134.340696 0.000000 0.000000 0.000000 
1.293750 88.584145 1.166784 0.000000 0.000000 0.000000 12.191121 -0.095165 -4.744488 -25.905492 13.505757 12.004005 70.503132 3.303777 4.398977 12.545537 0.110534 3.750687 0.000000 0.000000 0.000000 -8.680401 15.580707 5.634331 -41.303445 0.136115 -9.094408 52.514569 -4.211838 -4.406774 -0.094022 -4.500068 0.409197 0.000000 0.000000 0.000000 0.393286 -0.108136 0.232890 6.592286 15.891415 -3.798018 8.425213 -2.944591 2.333905 3.132034 -1.434491 1.745584 0.000000 0.000000 0.000000 2.627958 -1.500126 -0.219920 -0.302036 -0.262575 -0.173128 0.000000 0.000000 0.000000 3.824777 -1.043140 1.077096 1.572964 -5.384276 -1.817349 -44.130945 -24.478543 -62.976038 -55.354209 -83.218779 -56.290410 0.000000 0.000000 0.000000 2.312378 -3.110903 1.196811 1.358789 -4.672488 7.272464 -32.861881 23.851968 52.067738 -138.057876 83.353976 136.397717 0.000000 0.000000 0.000000 
